<svg class="currentColor" style="width: 1em;height: 1em;vertical-align: middle;fill: currentColor;overflow: hidden;" viewBox="0 0 1024 1024" version="1.1" xmlns="http://www.w3.org/2000/svg"><path d="M160 170.666667v650.666666h725.333333a10.666667 10.666667 0 0 1 10.666667 10.666667v42.666667a10.666667 10.666667 0 0 1-10.666667 10.666666H128a32 32 0 0 1-32-32V170.666667h64z" fill="currentColor" /><path d="M320 565.333333v149.333334a10.666667 10.666667 0 0 1-10.666667 10.666666h-42.666666a10.666667 10.666667 0 0 1-10.666667-10.666666v-149.333334a10.666667 10.666667 0 0 1 10.666667-10.666666h42.666666a10.666667 10.666667 0 0 1 10.666667 10.666666zM618.666667 480v234.666667a10.666667 10.666667 0 0 1-10.666667 10.666666h-42.666667a10.666667 10.666667 0 0 1-10.666666-10.666666v-234.666667a10.666667 10.666667 0 0 1 10.666666-10.666667h42.666667a10.666667 10.666667 0 0 1 10.666667 10.666667zM768.213333 309.333333v405.333334a10.666667 10.666667 0 0 1-10.666666 10.666666h-42.666667a10.666667 10.666667 0 0 1-10.666667-10.666666v-405.333334a10.666667 10.666667 0 0 1 10.666667-10.666666h42.666667a10.666667 10.666667 0 0 1 10.666666 10.666666zM469.546667 394.666667v320a10.666667 10.666667 0 0 1-10.666667 10.666666h-42.666667a10.666667 10.666667 0 0 1-10.666666-10.666666v-320a10.666667 10.666667 0 0 1 10.666666-10.666667h42.666667a10.666667 10.666667 0 0 1 10.666667 10.666667z" fill="currentColor" /></svg>