<svg class="currentColor" style="width: 1em;height: 1em;vertical-align: middle;fill: currentColor;overflow: hidden;" viewBox="0 0 1024 1024" version="1.1" xmlns="http://www.w3.org/2000/svg"><path d="M245.333333 224v64h-106.666666A10.666667 10.666667 0 0 1 128 277.333333v-42.666666a10.666667 10.666667 0 0 1 10.666667-10.666667h106.666666z m640 0a10.666667 10.666667 0 0 1 10.666667 10.666667v42.666666a10.666667 10.666667 0 0 1-10.666667 10.666667h-512v-64h512zM629.333333 480v64H138.666667A10.666667 10.666667 0 0 1 128 533.333333v-42.666666a10.666667 10.666667 0 0 1 10.666667-10.666667h490.666666z m256 0a10.666667 10.666667 0 0 1 10.666667 10.666667v42.666666a10.666667 10.666667 0 0 1-10.666667 10.666667h-128v-64h128zM245.333333 736v64h-106.666666A10.666667 10.666667 0 0 1 128 789.333333v-42.666666a10.666667 10.666667 0 0 1 10.666667-10.666667h106.666666z m640 0a10.666667 10.666667 0 0 1 10.666667 10.666667v42.666666a10.666667 10.666667 0 0 1-10.666667 10.666667h-512v-64h512z" fill="currentColor" /><path d="M213.333333 256a96 96 0 1 1 192 0A96 96 0 0 1 213.333333 256z m64 0A32 32 0 1 0 341.333333 256a32 32 0 0 0-64 0zM213.333333 768a96 96 0 1 1 192 0A96 96 0 0 1 213.333333 768z m64 0A32 32 0 1 0 341.333333 768a32 32 0 0 0-64 0zM597.333333 512a96 96 0 1 1 192 0 96 96 0 0 1-192 0z m64 0a32 32 0 1 0 64 0 32 32 0 0 0-64 0z" fill="currentColor" /></svg>