<svg class="currentColor" style="width: 1em;height: 1em;vertical-align: middle;fill: currentColor;overflow: hidden;" viewBox="0 0 1024 1024" version="1.1" xmlns="http://www.w3.org/2000/svg"><path d="M871.68 136.96h-128v42.666667h128v-42.666667zM280.32 136.96h-42.666667v-42.666667h-42.666666v42.666667h-42.666667v42.666667h42.666667v42.666666h42.666666v-42.666666h42.666667v-42.666667zM938.666667 437.333333a32.426667 32.426667 0 0 0 32-32v-85.333333a32 32 0 0 0-32-32h-66.986667v-42.666667h-128v42.666667H280.32v-42.666667h-128v42.666667H85.333333a32 32 0 0 0-32 32v85.333333a32.426667 32.426667 0 0 0 32 32h66.986667v341.333334H85.333333a32.426667 32.426667 0 0 0-32 32v85.333333a32 32 0 0 0 32 32h853.333334a32 32 0 0 0 32-32v-85.333333a32.426667 32.426667 0 0 0-32-32h-66.986667v-341.333334H938.666667z m-32 407.04v21.333334H117.333333v-21.333334h789.333334z m-669.013334-64v-341.333333h548.693334v341.333333H237.653333z m-85.333333-407.04h-34.986667v-21.333333h789.333334v21.333333H152.32z" fill="currentColor" fill-opacity=".54" /><path d="M502.186667 734.293333V640h-61.866667l81.493333-160v93.866667h61.866667l-81.493333 160.426666z" fill="currentColor" fill-opacity=".54" /></svg>