<svg class="currentColor" style="width: 1em;height: 1em;vertical-align: middle;fill: currentColor;overflow: hidden;" viewBox="0 0 1024 1024" version="1.1" xmlns="http://www.w3.org/2000/svg"><path d="M483.712 71.68a56 56 0 0 1 62.912 4.288l392 251.968 5.248 4.736a56.064 56.064 0 0 1 14.912 51.008c0.32 1.92 0.512 3.84 0.704 5.76L960 400v448a112 112 0 0 1-102.848 111.616L848 960H176a112 112 0 0 1-111.616-102.784L64 848v-448c0-5.632 0.384-11.136 1.216-16.512a55.936 55.936 0 0 1 20.16-55.552L477.44 75.968zM848 467.2l-304.96 203.328a56 56 0 0 1-55.68 3.712l-6.4-3.712L176 467.328v380.672h672V467.264zM512 191.168L229.888 368.64 512 556.672l282.048-188.032L512 191.168z" fill="currentColor" /></svg>