<svg fill="currentColor" class="currentColor" style="width: 1em;height: 1em;vertical-align: middle;fill: currentColor;overflow: hidden;" viewBox="0 0 1024 1024" version="1.1" xmlns="http://www.w3.org/2000/svg"><path d="M866.88 169.92L527.136 54.08A49.184 49.184 0 0 0 512 52.032c-5.504 0-11.008 0.704-15.104 2.112L157.12 169.888a24 24 0 0 0-15.072 21.216v482.4c0 8.8 5.696 20.384 12.576 25.92l344.704 268.576c3.52 2.688 8 4.096 12.608 4.096a20.48 20.48 0 0 0 12.608-4.096l344.704-268.608c6.88-5.408 12.576-16.992 12.576-25.92V191.136a23.584 23.584 0 0 0-14.88-21.216z m-56.864 484.384L512 886.496l-298.016-232.192V226.688L512 125.12l298.016 101.6v427.616zM404.16 453.312a16.096 16.096 0 0 0-12.992-6.624H336a8 8 0 0 0-6.496 12.704l126.4 174.016c6.4 8.8 19.584 8.8 25.984 0l212.608-292.704a8 8 0 0 0-6.496-12.704h-55.2a16.256 16.256 0 0 0-12.992 6.592l-150.912 207.808-64.704-89.088z" /></svg>