<svg class="currentColor" style="width: 1em;height: 1em;vertical-align: middle;fill: currentColor;overflow: hidden;" viewBox="0 0 1024 1024" version="1.1" xmlns="http://www.w3.org/2000/svg"><path d="M512 472.0128a39.9872 39.9872 0 1 0 79.9744 0 39.9872 39.9872 0 0 0-79.9744 0z m367.0016 352.8704L696.32 352V178.0224H768V109.9776H256v68.0448h71.68v173.9776l-182.6816 472.8832a64.0512 64.0512 0 0 0 59.6992 87.0912h614.6048a63.9488 63.9488 0 0 0 59.6992-87.0912z m-483.328-460.1856V180.0192h232.6016v184.6784l90.9312 235.3152a257.0752 257.0752 0 0 0-229.2224 52.0192c-33.8944 28.16-76.288 43.8784-121.2928 43.8784a188.416 188.416 0 0 1-91.8016-23.7056l118.784-307.5072z m-185.1904 479.2832l41.728-107.776a257.1776 257.1776 0 0 0 116.5824 27.8016c61.184 0 119.1936-21.504 165.3248-60.0064a188.7744 188.7744 0 0 1 121.2928-43.8784c34.9696 0 68.4032 9.472 97.5872 27.0848l60.5184 156.7744H210.432z" fill="currentColor" fill-opacity=".45" /></svg>