<svg fill="currentColor" class="currentColor" style="width: 1em;height: 1em;vertical-align: middle;fill: currentColor;overflow: hidden;" viewBox="0 0 1024 1024" version="1.1" xmlns="http://www.w3.org/2000/svg"><path d="M769.92 896H246.208c-32.896 0-64.64-13.952-86.976-38.08a118.528 118.528 0 0 1-30.848-89.792l43.776-531.584A118.848 118.848 0 0 1 289.984 128h436.096c61.056 0 112.768 47.68 117.76 108.48L887.68 768a118.4 118.4 0 0 1-117.76 128zM289.92 211.072a35.328 35.328 0 0 0-35.008 32.256L211.2 774.912a34.368 34.368 0 0 0 9.216 26.688 34.56 34.56 0 0 0 25.92 11.328h523.648a34.56 34.56 0 0 0 25.856-11.328 34.688 34.688 0 0 0 9.216-26.816L761.28 243.2a35.328 35.328 0 0 0-35.072-32.192H289.984v0.064zM309.12 332.8c24.256 116.48 106.304 197.76 199.552 197.76 93.44 0 175.552-81.6 199.488-198.208a41.472 41.472 0 1 0-81.28-16.832c-16 77.76-64.64 132.032-118.336 132.032-53.44 0-102.016-54.144-118.208-131.648a41.408 41.408 0 1 0-81.216 16.896z" /></svg>