<svg fill="currentColor" class="currentColor" style="width: 1em;height: 1em;vertical-align: middle;fill: currentColor;overflow: hidden;" viewBox="0 0 1024 1024" version="1.1" xmlns="http://www.w3.org/2000/svg"><path d="M896 160H128c-35.3 0-64 28.7-64 64v576c0 35.3 28.7 64 64 64h768c35.3 0 64-28.7 64-64V224c0-35.3-28.7-64-64-64zM232 800c0-98.1 79.9-178 178-178s178 79.9 178 178H232z m178-248c-46.3 0-84-37.7-84-84s37.7-84 84-84 84 37.7 84 84-37.7 84-84 84z m486 248H652c0-64.6-25.2-125.4-70.9-171.1-21.4-21.4-46.1-38.3-72.9-50.2C538.8 551.6 558 512 558 468c0-81.7-66.3-148-148-148s-148 66.3-148 148c0 44 19.2 83.6 49.8 110.7-26.8 11.9-51.5 28.8-72.9 50.2C193.2 674.6 168 735.4 168 800h-40V224h768v576zM696 480h96c17.7 0 32-14.3 32-32v-96c0-17.7-14.3-32-32-32h-96c-17.7 0-32 14.3-32 32v96c0 17.7 14.3 32 32 32z m16-112h64v64h-64v-64z" /></svg>