<svg class="currentColor" style="width: 1em;height: 1em;vertical-align: middle;fill: currentColor;overflow: hidden;" viewBox="0 0 1024 1024" version="1.1" xmlns="http://www.w3.org/2000/svg"><path d="M512 64c247.424 0 448 200.576 448 448s-200.576 448-448 448S64 759.424 64 512 264.576 64 512 64z m0 64C299.936 128 128 299.936 128 512s171.936 384 384 384 384-171.936 384-384S724.064 128 512 128z m231.776 184.224a32 32 0 0 1 0 45.28l-121.504 121.472a128 128 0 1 1-45.248-45.248l121.472-121.504a32 32 0 0 1 45.28 0zM512 192c37.184 0 73.568 6.368 107.904 18.656a32 32 0 1 1-21.568 60.256 256 256 0 0 0-340.672 270.464 32 32 0 0 1-63.584 7.264C192.704 536.512 192 524.32 192 512c0-176.736 143.264-320 320-320z m312.128 249.12a320.96 320.96 0 0 1 5.856 106.848 32 32 0 1 1-63.584-7.136 259.136 259.136 0 0 0-4.704-85.6 32 32 0 1 1 62.4-14.112z" fill="currentColor" /></svg>