<svg fill="currentColor" class="currentColor" style="width: 1em;height: 1em;vertical-align: middle;fill: currentColor;overflow: hidden;" viewBox="0 0 1024 1024" version="1.1" xmlns="http://www.w3.org/2000/svg"><path d="M412 180h200c17.7 0 32-14.3 32-32s-14.3-32-32-32H412c-17.7 0-32 14.3-32 32s14.3 32 32 32zM420 800c17.7 0 32-14.3 32-32V392c0-17.7-14.3-32-32-32s-32 14.3-32 32v376c0 17.7 14.3 32 32 32zM604 800c17.7 0 32-14.3 32-32V392c0-17.7-14.3-32-32-32s-32 14.3-32 32v376c0 17.7 14.3 32 32 32zM877 239H147c-17.7 0-32 14.3-32 32s14.3 32 32 32h61v511c0 52.9 43.1 96 96 96h416c52.9 0 96-43.1 96-96V303h61c17.7 0 32-14.3 32-32s-14.3-32-32-32zM752 814c0 17.6-14.4 32-32 32H304c-17.6 0-32-14.4-32-32V303h480v511z" /></svg>