<svg fill="currentColor" class="currentColor" style="width: 1em;height: 1em;vertical-align: middle;fill: currentColor;overflow: hidden;" viewBox="0 0 1024 1024" version="1.1" xmlns="http://www.w3.org/2000/svg"><path d="M768 85.333333h-288.426667a128 128 0 0 0-90.453333 37.546667L208.213333 303.786667A128 128 0 0 0 170.666667 394.24V853.333333a85.333333 85.333333 0 0 0 85.333333 85.333334h512a85.333333 85.333333 0 0 0 85.333333-85.333334V170.666667a85.333333 85.333333 0 0 0-85.333333-85.333334z m0 768H256V426.666667h213.333333a42.666667 42.666667 0 0 0 42.666667-42.666667V170.666667h256zM341.333333 533.333333v42.666667a21.333333 21.333333 0 0 0 21.333334 21.333333h298.666666a21.333333 21.333333 0 0 0 21.333334-21.333333v-42.666667a21.333333 21.333333 0 0 0-21.333334-21.333333h-298.666666a21.333333 21.333333 0 0 0-21.333334 21.333333z m192 149.333334h-170.666666a21.333333 21.333333 0 0 0-21.333334 21.333333v42.666667a21.333333 21.333333 0 0 0 21.333334 21.333333h170.666666a21.333333 21.333333 0 0 0 21.333334-21.333333v-42.666667a21.333333 21.333333 0 0 0-21.333334-21.333333z" /></svg>