<svg fill="currentColor" class="currentColor" style="width: 1em;height: 1em;vertical-align: middle;fill: currentColor;overflow: hidden;" viewBox="0 0 1024 1024" version="1.1" xmlns="http://www.w3.org/2000/svg"><path d="M845 430H736c-17.7 0-32 14.3-32 32s14.3 32 32 32h108.9l0.1 0.1v351.8l-0.1 0.1H179.1l-0.1-0.1V494.1l0.1-0.1H288c17.7 0 32-14.3 32-32s-14.3-32-32-32H179c-35.2 0-64 28.8-64 64v352c0 35.2 28.8 64 64 64h666c35.2 0 64-28.8 64-64V494c0-35.2-28.8-64-64-64zM488.6 773.8c6.1 6.5 14.5 10.2 23.4 10.2 8.9 0 17.3-3.7 23.4-10.2l148-159.5c12.1-13 11.4-33.4-1.5-45.6-12.9-12.2-33.2-11.5-45.2 1.5L544 670V147.8c0-17.6-14.3-31.8-32-31.8s-32 14.2-32 31.8V670l-92.6-99.8c-12.1-13-32.3-13.7-45.2-1.5-12.9 12.2-13.6 32.6-1.5 45.6l147.9 159.5z" /></svg>