<svg fill="currentColor" class="currentColor" style="width: 1em;height: 1em;vertical-align: middle;fill: currentColor;overflow: hidden;" viewBox="0 0 1024 1024" version="1.1" xmlns="http://www.w3.org/2000/svg"><path d="M876.1 512c-17.6 0-31.9 14.3-31.9 31.9v300.2H179.8V179.8H480c17.6 0 31.9-14.3 31.9-31.9 0-17.6-14.3-31.9-31.9-31.9H179.8c-35.3 0-63.8 28.6-63.8 63.8v664.3c0 35.3 28.6 63.8 63.8 63.8h664.3c35.3 0 63.8-28.6 63.8-63.8V543.9c0.1-17.6-14.2-31.9-31.8-31.9zM332.6 612.3l-11.2 72c-1.7 10.7 7.6 19.9 18.3 18.3l72-11.2c13.4-2.1 25.8-8.4 35.4-18l397-397c3.1-3.1 3.1-8.2 0-11.3l-85.2-85.2c-3.1-3.1-8.2-3.1-11.3 0l-397 397c-9.6 9.6-15.9 22-18 35.4zM870.1 239.1c3.1 3.1 8.2 3.1 11.3 0l6.6-6.6c26.1-24.6 26.7-67.7 1.9-94.6-26.4-28.6-71.5-28.8-99-1.3l-5.9 5.9c-3.1 3.1-3.1 8.2 0 11.3l85.1 85.3z" /></svg>