<svg fill="currentColor" class="currentColor" style="width: 1em;height: 1em;vertical-align: middle;fill: currentColor;overflow: hidden;" viewBox="0 0 1024 1024" version="1.1" xmlns="http://www.w3.org/2000/svg"><path d="M848 359.296h-220.32l198.08-250.304A8.032 8.032 0 0 0 819.52 96H435.968a7.936 7.936 0 0 0-6.88 4L169.984 547.488a8 8 0 0 0 6.88 12h174.4L261.888 917.12c-1.92 7.808 7.488 13.312 13.28 7.712l578.304-551.808a7.936 7.936 0 0 0-5.504-13.696zM378.144 732.512l60.288-241.024H281.088l189.6-327.36h224.576l-208.288 263.264h211.008l-319.808 305.12z" /></svg>