<svg class="currentColor" style="width: 1em;height: 1em;vertical-align: middle;fill: currentColor;overflow: hidden;" viewBox="0 0 1024 1024" version="1.1" xmlns="http://www.w3.org/2000/svg"><path d="M496.554667 101.973333l-387.2 277.333334c-25.258667 18.133333-12.458667 58.026667 18.645333 58.026666h768c30.976 0 43.861333-39.637333 18.858667-57.856l-380.842667-277.333333a32 32 0 0 0-37.461333-0.170667z m18.432 65.493334l282.709333 205.866666H227.541333l287.445334-205.866666zM917.333333 853.333333v42.666667a10.666667 10.666667 0 0 1-10.666666 10.666667H117.333333A10.666667 10.666667 0 0 1 106.666667 896v-42.666667a10.666667 10.666667 0 0 1 10.666666-10.666666h789.333334a10.666667 10.666667 0 0 1 10.666666 10.666666z" fill="currentColor" /><path d="M256 426.666667v426.666666H192V426.666667zM448 426.666667v426.666666H384V426.666667zM640 426.666667v426.666666h-64V426.666667zM832 426.666667v426.666666H768V426.666667z" fill="currentColor" /></svg>