<svg class="currentColor" style="width: 1em;height: 1em;vertical-align: middle;fill: currentColor;overflow: hidden;" viewBox="0 0 1024 1024" version="1.1" xmlns="http://www.w3.org/2000/svg"><path d="M800 64a64 64 0 0 1 63.84 59.2L864 128v768a64 64 0 0 1-59.2 63.84L800 960H224a64 64 0 0 1-63.84-59.2L160 896V365.248a64 64 0 0 1 14.944-41.088l3.808-4.16L416 82.752a64 64 0 0 1 39.616-18.496L461.248 64H800z m0 64h-288v224a64 64 0 0 1-59.2 63.84L448 416H224v480h576V128zM448 505.728a32 32 0 0 1 16.96 4.864l163.616 102.272a32 32 0 0 1 0 54.272l-163.616 102.272a32 32 0 0 1-48.96-27.136v-204.544a32 32 0 0 1 32-32z m0-364.48L237.216 352H448V141.248z" fill="currentColor" /></svg>