<svg class="currentColor" style="width: 1.0009765625em;height: 1em;vertical-align: middle;fill: currentColor;overflow: hidden;" viewBox="0 0 1025 1024" version="1.1" xmlns="http://www.w3.org/2000/svg"><path d="M977.582 194.462c-33.984-9.708-69.41 9.97-79.12 43.956L893.44 256 296.498 256l-8.992-71.938C283.502 152.034 256.276 128 224 128L64 128C28.654 128 0 156.654 0 192s28.654 64 64 64l103.502 0 56.992 455.938C228.498 743.964 255.724 768 288 768l544 0c28.574 0 53.688-18.944 61.538-46.418l128-448C1031.248 239.596 1011.568 204.172 977.582 194.462zM512 512l0-64 127.996 0 0 64L512 512zM639.996 576l0 64L512 640l0-64L639.996 576zM512 384l0-64 127.996 0 0 64L512 384zM304.498 320 448 320l0 64-135.502 0L304.498 320zM320.498 448 448 448l0 64-119.502 0L320.498 448zM336.498 576 448 576l0 64-103.502 0L336.498 576zM783.724 640l-79.728 0 0-64 98.014 0L783.724 640zM820.296 512l-116.3 0 0-64 134.586 0L820.296 512zM856.868 384l-152.872 0 0-64 171.158 0L856.868 384zM256 928A48 48 3600 1 0 448 928 48 48 3600 1 0 256 928zM640 928A48 48 3600 1 0 832 928 48 48 3600 1 0 640 928z" fill="currentColor" /></svg>