<svg fill="currentColor" class="currentColor" style="width: 1em;height: 1em;vertical-align: middle;fill: currentColor;overflow: hidden;" viewBox="0 0 1024 1024" version="1.1" xmlns="http://www.w3.org/2000/svg"><path d="M512 128.1c9.8 0 19.2 3.4 26.7 9.6l352.5 341.8 1.2 1.2 1.2 1.1c1.3 1.2 3.4 2.9 1.8 7.1-1.6 4.3-4.4 4.3-6.3 4.3H768.7v396.4c0 3.6-3 6.5-6.7 6.5H652.7V774.7c0-55.3-44.9-100.2-100.1-100.2h-81.2c-55.2 0-100.1 45-100.1 100.2v121.2H264.5c-3.7 0-6.7-2.9-6.7-6.5V493H134.7c-1.9 0-4.7 0-6.3-4.3-1.6-4.1 0.5-5.9 1.8-7.1l1.2-1.1 1.2-1.2 352.5-341.8c7.7-6 17.1-9.4 26.9-9.4m0-64.1c-24.9 0-49.8 8.7-69.8 26.2L88.3 433.4c-49.1 42.9-18.7 123.7 46.5 123.7h59.1v332.3c0 39 31.6 70.6 70.7 70.6h134.6c19.9 0 36.1-16.2 36.1-36.2V774.7c0-20 16.2-36.2 36.1-36.2h81.2c19.9 0 36.1 16.2 36.1 36.2v149.1c0 20 16.2 36.2 36.1 36.2h137.3c39 0 70.7-31.6 70.7-70.6V557.1h56.4c65.3 0 95.6-80.8 46.5-123.7L581.8 90.2C561.8 72.7 536.9 64 512 64z" /></svg>