<svg fill="currentColor" class="currentColor" style="width: 1em;height: 1em;vertical-align: middle;fill: currentColor;overflow: hidden;" viewBox="0 0 1024 1024" version="1.1" xmlns="http://www.w3.org/2000/svg"><path d="M960 768a128 128 0 0 1-128 128H192a128 128 0 0 1-128-128V256a128 128 0 0 1 128-128h640a128 128 0 0 1 128 128v512zM272.554667 434.581333c0 32 11.754667 61.312 31.146666 83.477334-66.176 34.304-111.445333 104.789333-111.445333 185.941333a32 32 0 1 0 64 0c0-79.829333 62.293333-144.149333 138.666667-144.149333 76.352 0 138.666667 64.32 138.666666 144.149333a32 32 0 1 0 64 0c0-81.152-45.290667-151.637333-111.466666-185.92a126.570667 126.570667 0 0 0 31.146666-83.498667c0-68.949333-54.549333-125.248-122.346666-125.248-67.818667 0-122.368 56.32-122.368 125.248z m180.736 0c0 34.069333-26.368 61.269333-58.346667 61.269334-32 0-58.368-27.2-58.368-61.269334 0-34.048 26.368-61.248 58.368-61.248 32 0 58.346667 27.2 58.346667 61.248z m374.122666 2.752a32 32 0 0 0-32-32h-192a32 32 0 1 0 0 64h192a32 32 0 0 0 32-32z m-138.666666 160a32 32 0 1 0 0 64h106.666666a32 32 0 1 0 0-64h-106.666666z" /></svg>