<svg fill="currentColor" class="currentColor" style="width: 1em;height: 1em;vertical-align: middle;fill: currentColor;overflow: hidden;" viewBox="0 0 1024 1024" version="1.1" xmlns="http://www.w3.org/2000/svg"><path d="M962.59640889 657.63555555h-118.40170667V484.69333333a9.10222222 9.10222222 0 0 0-9.02940444-9.10222222H552.92359111V366.36444445h122.91640889a18.20444445 18.20444445 0 0 0 18.20444445-18.20444445v-327.68a18.20444445 18.20444445 0 0 0-18.20444445-18.20444445h-327.68a18.20444445 18.20444445 0 0 0-18.20444445 18.20444445v327.68c0 10.04885333 8.15559111 18.20444445 18.20444445 18.20444445h122.91640889v109.22666666H188.90752a9.10222222 9.10222222 0 0 0-9.17504 9.10222222V657.63555555H61.47640889a18.20444445 18.20444445 0 0 0-18.20444444 18.20444445v327.68c0 9.97603555 8.15559111 18.20444445 18.20444444 18.20444445h327.68a18.20444445 18.20444445 0 0 0 18.20444444-18.20444445v-327.68a18.20444445 18.20444445 0 0 0-18.20444444-18.20444445h-127.43111111V557.51111111h500.62222222V657.63555555h-127.43111111a18.20444445 18.20444445 0 0 0-18.20444444 18.20444445v327.68c0 9.97603555 8.15559111 18.20444445 18.20444444 18.20444445h327.68a18.20444445 18.20444445 0 0 0 18.20444444-18.20444445v-327.68a18.20444445 18.20444445 0 0 0-18.20444444-18.20444445z m-641.74307556 86.50752v191.0738489H129.70666667v-191.0738489h191.14666666z m95.60974222-464.2861511V88.78307555h191.14666667v191.21948445H416.39025778z m477.83025778 655.36h-191.14666666v-191.0738489h191.14666666v191.0738489z" /></svg>