<svg class="currentColor" style="width: 1em;height: 1em;vertical-align: middle;fill: currentColor;overflow: hidden;" viewBox="0 0 1024 1024" version="1.1" xmlns="http://www.w3.org/2000/svg"><path d="M816 160a48 48 0 0 1 47.776 43.392L864 208v608a48 48 0 0 1-43.392 47.776L816 864h-608a48 48 0 0 1-47.776-43.392L160 816V736a32 32 0 0 1 63.776-3.744L224 736v64h576V224H224v96a32 32 0 0 1-28.256 31.776L192 352a32 32 0 0 1-31.776-28.256L160 320V208a48 48 0 0 1 43.392-47.776L208 160h608z m-281.376 193.6l135.776 135.776a32 32 0 0 1 0 45.248l-135.776 135.776a32 32 0 0 1-45.248-45.248l81.12-81.184L160 544a32 32 0 0 1 0-64h410.496l-81.12-81.152a32 32 0 0 1 45.248-45.248z" fill="currentColor" /></svg>