<svg class="currentColor" style="width: 1em;height: 1em;vertical-align: middle;fill: currentColor;overflow: hidden;" viewBox="0 0 1024 1024" version="1.1" xmlns="http://www.w3.org/2000/svg"><path d="M864 864a32 32 0 0 1 0 64H160a32 32 0 0 1 0-64h704zM560 96a16 16 0 0 1 16 16v64a16 16 0 0 1-16 16H544v64h288a32 32 0 0 1 32 32v160h80a16 16 0 0 1 16 16v128a16 16 0 0 1-16 16H864v160a32 32 0 0 1-32 32H192a32 32 0 0 1-32-32v-160H80a16 16 0 0 1-16-16v-128a16 16 0 0 1 16-16H160V288a32 32 0 0 1 32-32h288V192h-16a16 16 0 0 1-16-16v-64a16 16 0 0 1 16-16h96z m128 352h-64a16 16 0 0 0-16 16v64a16 16 0 0 0 16 16h64a16 16 0 0 0 16-16v-64a16 16 0 0 0-16-16z m-288 0h-64a16 16 0 0 0-16 16v64a16 16 0 0 0 16 16h64a16 16 0 0 0 16-16v-64a16 16 0 0 0-16-16z" fill="currentColor" /></svg>