<svg class="currentColor" style="width: 1em;height: 1em;vertical-align: middle;fill: currentColor;overflow: hidden;" viewBox="0 0 1024 1024" version="1.1" xmlns="http://www.w3.org/2000/svg"><path d="M832 64a32 32 0 0 1 32 32v832a32 32 0 0 1-32 32H192a32 32 0 0 1-32-32V384h256a64 64 0 0 0 64-64V64h352zM472.864 531.264h-139.648v27.392h99.136l-99.968 155.968V736h144.128v-27.296h-103.904l100.256-156.928v-20.512z m67.424 0h-34.176V736h34.176v-204.736z m117.92 0h-78.464V736h34.144v-77.632h44.32c33.888 0 33.888 0 53.088-17.376 19.2-17.344 19.2-17.344 19.2-46.176 0-28.544 0-28.544-19.2-46.08-17.088-15.552-17.088-15.552-45.76-17.28l-7.36-0.192z m0 27.392c18.976 0 18.976 0 28.544 10.432 9.568 10.4 9.568 10.4 9.568 26.016 0 15.584 0 15.584-9.6 25.728-9.536 10.112-9.536 10.112-28.512 10.112h-44.32v-72.288h44.32zM415.968 66.88L416 320H162.88a32 32 0 0 1 6.496-9.376l237.248-237.248A32 32 0 0 1 416 66.88z" fill="currentColor" /></svg>