<svg fill="currentColor" class="currentColor" style="width: 1em;height: 1em;vertical-align: middle;fill: currentColor;overflow: hidden;" viewBox="0 0 1024 1024" version="1.1" xmlns="http://www.w3.org/2000/svg"><path d="M880 112H144c-17.706667 0-32 14.293333-32 32v736c0 17.706667 14.293333 32 32 32h736c17.706667 0 32-14.293333 32-32V144c0-17.706667-14.293333-32-32-32zM403.989333 683.008v76.992a8.021333 8.021333 0 0 1-8 8h-48a8.021333 8.021333 0 0 1-8-8v-77.013333a104.32 104.32 0 0 1-71.978666-98.986667 104.234667 104.234667 0 0 1 71.978666-98.986667v-221.013333c0-4.394667 3.626667-8 8.021334-8h48c4.394667 0 8 3.605333 8 8v221.013333a104.32 104.32 0 0 1 72 98.986667 104.234667 104.234667 0 0 1-72 98.986667z m279.616-143.914667c0.213333 0 0.298667-0.085333 0.405334-0.085333v220.992a8.021333 8.021333 0 0 1-8.021334 8h-48a8.021333 8.021333 0 0 1-8-8v-221.013333c0.213333 0 0.32 0.106667 0.426667 0.106666a104.064 104.064 0 0 1 0-198.186666c-0.213333 0-0.32 0.085333-0.426667 0.085333v-76.992c0-4.394667 3.626667-8 8-8h48c4.416 0 8 3.605333 8 8v77.013333c-0.192 0-0.298667-0.106667-0.384-0.106666a104.064 104.064 0 0 1 0 198.186666z m-67.605333-99.093333a36.010667 36.010667 0 1 0 72 0 36.010667 36.010667 0 0 0-72 0z m-212.608 126.506667l-1.493333-2.410667c0-0.106667-0.106667-0.106667-0.106667-0.213333l-0.896-1.173334a27.434667 27.434667 0 0 0-3.413333-3.904l-0.192-0.213333a11.989333 11.989333 0 0 0-1.194667-1.088 17.066667 17.066667 0 0 0-2.602667-2.112h-0.085333l-1.216-0.896c-0.085333-0.106667-0.298667-0.213333-0.384-0.298667a24.576 24.576 0 0 0-3.904-2.197333c-0.213333-0.106667-0.512-0.213333-0.704-0.405333-0.405333-0.213333-0.704-0.298667-1.109333-0.490667l-0.981334-0.405333c-0.512-0.213333-1.002667-0.405333-1.493333-0.490667-0.426667-0.106667-0.917333-0.298667-1.322667-0.426667l-0.896-0.277333c-0.490667-0.106667-0.896-0.213333-1.408-0.298667-0.192-0.106667-0.490667-0.106667-0.682666-0.213333-0.704-0.085333-1.408-0.298667-2.112-0.384-0.213333 0-0.384 0-0.597334-0.106667-0.597333-0.106667-1.088-0.106667-1.706666-0.213333-0.192 0-0.384 0-0.682667-0.085333-0.810667 0-1.493333-0.106667-2.304-0.106667-0.810667 0-1.493333 0-2.304 0.106667-0.213333 0-0.405333 0-0.704 0.106666a8.810667 8.810667 0 0 0-1.706667 0.192c-0.192 0-0.384 0-0.597333 0.106667a15.530667 15.530667 0 0 0-2.090667 0.384c-0.213333 0.106667-0.490667 0.106667-0.704 0.213333-0.490667 0.085333-0.896 0.213333-1.408 0.298667l-0.896 0.298667-1.28 0.405333a8.789333 8.789333 0 0 1-1.493333 0.490667l-1.024 0.405333c-0.405333 0.213333-0.704 0.298667-1.088 0.490667-0.213333 0.106667-0.512 0.213333-0.704 0.405333-1.301333 0.704-2.602667 1.408-3.904 2.197333-0.106667 0.106667-0.298667 0.213333-0.405333 0.298667l-1.194667 0.896h-0.106667a59.242667 59.242667 0 0 0-2.602666 2.112c-0.384 0.405333-0.789333 0.704-1.194667 1.088l-0.213333 0.213333a54.805333 54.805333 0 0 0-3.2 3.605334c-0.085333 0.085333-0.192 0.192-0.192 0.298666l-0.896 1.194667c0 0.106667-0.085333 0.106667-0.085334 0.213333l-1.493333 2.389334c-0.106667 0.213333-0.213333 0.298667-0.32 0.490666-2.688 5.12-4.288 10.901333-4.288 17.002667 0 6.101333 1.6 12.010667 4.288 17.002667 0.106667 0.213333 0.213333 0.298667 0.298667 0.490666l1.493333 2.410667c0 0.106667 0.106667 0.106667 0.106667 0.213333l0.896 1.173334a27.434667 27.434667 0 0 0 3.413333 3.904l0.213333 0.213333a11.989333 11.989333 0 0 0 1.173334 1.088 17.066667 17.066667 0 0 0 2.602666 2.112h0.106667l1.194667 0.896c0.106667 0.106667 0.298667 0.213333 0.405333 0.298667 1.194667 0.789333 2.496 1.6 3.904 2.197333 0.213333 0.106667 0.490667 0.213333 0.704 0.405333 0.384 0.213333 0.682667 0.298667 1.088 0.490667l1.002667 0.405333c0.490667 0.213333 1.002667 0.405333 1.493333 0.490667 0.426667 0.106667 0.917333 0.298667 1.301333 0.426667l0.917334 0.277333 1.386666 0.298667c0.213333 0.106667 0.512 0.106667 0.704 0.213333 0.704 0.085333 1.408 0.298667 2.090667 0.384 0.213333 0 0.426667 0 0.597333 0.106667 0.618667 0.106667 1.109333 0.106667 1.706667 0.213333 0.213333 0 0.405333 0 0.704 0.085333 0.810667 0 1.493333 0.106667 2.304 0.106667 0.789333 0 1.493333 0 2.304-0.106667 0.192 0 0.384 0 0.682667-0.106666a8.810667 8.810667 0 0 0 1.706666-0.192c0.213333 0 0.405333 0 0.597334-0.106667a15.530667 15.530667 0 0 0 2.112-0.384c0.213333-0.106667 0.490667-0.106667 0.682666-0.213333 0.512-0.085333 0.917333-0.213333 1.408-0.298667l0.896-0.298667c0.426667-0.106667 0.896-0.298667 1.301334-0.405333a8.789333 8.789333 0 0 1 1.493333-0.490667l1.002667-0.405333c0.426667-0.213333 0.704-0.298667 1.109333-0.490667 0.213333-0.106667 0.490667-0.213333 0.704-0.405333 1.28-0.704 2.602667-1.408 3.904-2.197333 0.085333-0.106667 0.298667-0.213333 0.384-0.298667l1.216-0.896h0.085333c0.917333-0.704 1.813333-1.408 2.602667-2.112 0.405333-0.405333 0.810667-0.704 1.194667-1.088l0.213333-0.213333a54.805333 54.805333 0 0 0 3.413333-3.904l0.874667-1.194667c0-0.106667 0.106667-0.106667 0.106667-0.213333l1.493333-2.389334c0.106667-0.213333 0.213333-0.298667 0.298667-0.490666 2.709333-5.12 4.309333-10.901333 4.309333-17.002667 0-6.101333-1.6-12.010667-4.309333-17.002667-0.085333-0.213333-0.192-0.405333-0.298667-0.490666z" /></svg>