<svg class="currentColor" style="width: 1em;height: 1em;vertical-align: middle;fill: currentColor;overflow: hidden;" viewBox="0 0 1024 1024" version="1.1" xmlns="http://www.w3.org/2000/svg"><path d="M480 544v416H192a32 32 0 0 1-32-32V544h320z m384 0v384a32 32 0 0 1-32 32h-288V544h320zM638.72 48.768c61.632-34.528 140.416-14.048 176 45.76 32.704 54.912 17.504 123.936-33.024 161.536L896 256a32 32 0 0 1 32 32v192H544V288h-64v192H96V288a32 32 0 0 1 32-32l114.304 0.064C191.776 218.464 176.576 149.44 209.28 94.496c35.584-59.776 114.368-80.256 176-45.76 25.92 14.528 56.512 50.816 91.84 108.896l11.328 19.072c7.648 13.184 15.488 27.328 23.552 42.464l6.016-11.2 11.776-21.216 5.76-10.048 11.328-19.072c35.328-58.08 65.92-94.368 91.84-108.864zM264.32 127.232c-17.056 28.64-6.976 65.12 23.424 82.144 10.464 5.856 31.04 10.208 60.992 12.544l15.712 1.024 17.28 0.672 18.784 0.32 20.256-0.032 20.672-0.416-5.152-9.088-10.016-17.184-4.864-8.064-9.408-15.104a709.44 709.44 0 0 0-4.544-7.04l-8.736-12.96c-18.464-26.624-33.664-43.264-44.704-49.44-31.52-17.664-72-7.136-89.696 22.624z m495.424 0c-17.728-29.76-58.176-40.32-89.696-22.624-11.04 6.176-26.24 22.816-44.704 49.44l-8.736 12.992a709.44 709.44 0 0 0-4.544 7.04l-9.408 15.072-9.824 16.48c-1.664 2.88-3.36 5.76-5.056 8.768l-5.12 9.088 20.64 0.416 20.256 0.032 18.784-0.32 17.28-0.672 15.712-1.024c29.92-2.336 50.528-6.688 60.992-12.544 30.4-17.024 40.48-53.504 23.424-82.144z" fill="currentColor" /></svg>