<svg fill="currentColor" class="currentColor" style="width: 1em;height: 1em;vertical-align: middle;fill: currentColor;overflow: hidden;" viewBox="0 0 1024 1024" version="1.1" xmlns="http://www.w3.org/2000/svg"><path d="M887.8 160H674.5c-56.6 0-112.2 15.2-160.9 44.1l-1.6 0.9c-49.1-29.4-105.2-45-162.5-45H136.2C96.3 160 64 185.4 64 216.7v590.5c0 31.3 32.3 56.7 72.2 56.7h213.3c57.2 0 113.4 15.6 162.5 45l1.6-0.9c48.7-28.8 104.3-44.1 160.9-44.1h213.3c39.9 0 72.2-25.4 72.2-56.7V216.7c0-31.3-32.3-56.7-72.2-56.7zM397 696H185c-17.7 0-32-14.3-32-32s14.3-32 32-32h212c17.7 0 32 14.3 32 32s-14.3 32-32 32z m0-150H185c-17.7 0-32-14.3-32-32s14.3-32 32-32h212c17.7 0 32 14.3 32 32s-14.3 32-32 32z m0-149H185c-17.7 0-32-14.3-32-32s14.3-32 32-32h212c17.7 0 32 14.3 32 32s-14.3 32-32 32z m443 299H628c-17.7 0-32-14.3-32-32s14.3-32 32-32h212c17.7 0 32 14.3 32 32s-14.3 32-32 32z m0-150H628c-17.7 0-32-14.3-32-32s14.3-32 32-32h212c17.7 0 32 14.3 32 32s-14.3 32-32 32z m0-149H628c-17.7 0-32-14.3-32-32s14.3-32 32-32h212c17.7 0 32 14.3 32 32s-14.3 32-32 32z" /></svg>