<svg fill="currentColor" class="currentColor" style="width: 1em;height: 1em;vertical-align: middle;fill: currentColor;overflow: hidden;" viewBox="0 0 1024 1024" version="1.1" xmlns="http://www.w3.org/2000/svg"><path d="M866.88 169.92L527.04 54.08A49.152 49.152 0 0 0 512 52.032a49.152 49.152 0 0 0-15.104 2.048l-339.84 115.84a24 24 0 0 0-15.04 21.12v482.432c0 8.832 5.696 20.48 12.608 25.92l344.704 268.608a20.672 20.672 0 0 0 12.544 4.096 20.48 20.48 0 0 0 12.608-4.096l344.704-268.608a37.184 37.184 0 0 0 12.608-25.92V191.104a23.552 23.552 0 0 0-14.912-21.184z m-172.352 170.752L481.92 633.408a16.128 16.128 0 0 1-26.048 0L329.472 459.392a8 8 0 0 1 6.528-12.672h55.168c5.12 0 10.048 2.496 13.056 6.592l64.64 88.96 150.912-207.744a16.128 16.128 0 0 1 13.056-6.656h55.168c6.528 0.128 10.24 7.552 6.528 12.8z" /></svg>