<svg class="currentColor" style="width: 1em;height: 1em;vertical-align: middle;fill: currentColor;overflow: hidden;" viewBox="0 0 1024 1024" version="1.1" xmlns="http://www.w3.org/2000/svg"><path d="M512 64c247.424 0 448 200.576 448 448s-200.576 448-448 448S64 759.424 64 512 264.576 64 512 64z m-135.776 266.976a32 32 0 0 0-47.904 42.24l2.656 3.008L466.752 512l-135.776 135.776a32 32 0 0 0 42.24 47.904l3.008-2.656L512 557.248l135.776 135.776a32 32 0 0 0 47.904-42.24l-2.656-3.008L557.248 512l135.776-135.776a32 32 0 0 0-42.24-47.904l-3.008 2.656L512 466.752l-135.776-135.776z" fill="currentColor" /></svg>