<svg fill="currentColor" class="currentColor" style="width: 1em;height: 1em;vertical-align: middle;fill: currentColor;overflow: hidden;" viewBox="0 0 1024 1024" version="1.1" xmlns="http://www.w3.org/2000/svg"><path d="M288.415 768c35.36 0 64.024 28.654 64.024 64 0 35.346-28.665 64-64.024 64-35.36 0-64.025-28.654-64.025-64 0-35.346 28.665-64 64.025-64z m554.878 0c35.36 0 64.024 28.654 64.024 64 0 35.346-28.665 64-64.024 64-35.36 0-64.025-28.654-64.025-64 0-35.346 28.665-64 64.025-64zM149.695 96c14.536 0 27.225 9.793 30.934 23.81l0.11 0.426L206.689 224 950 224c20.611 0 35.79 19.177 31.19 39.158l-0.146 0.606L874.337 690.43c-3.563 14.244-16.362 24.236-31.044 24.236H288.415c-14.683 0-27.482-9.992-31.044-24.236L150.663 263.764 124.713 160H75c-17.496 0-31.713-14.042-31.996-31.47L43 128c0-17.496 14.042-31.713 31.47-31.996L75 96h74.695z" /></svg>