<svg class="currentColor" style="width: 1em;height: 1em;vertical-align: middle;fill: currentColor;overflow: hidden;" viewBox="0 0 1024 1024" version="1.1" xmlns="http://www.w3.org/2000/svg"><path d="M512 64c247.424 0 448 200.576 448 448s-200.576 448-448 448S64 759.424 64 512 264.576 64 512 64z m231.776 248.224a32 32 0 0 0-45.28 0l-121.472 121.504a128 128 0 1 0 45.248 45.248l121.504-121.472a32 32 0 0 0 0-45.28zM512 192C335.264 192 192 335.264 192 512c0 12.288 0.704 24.512 2.08 36.64a32 32 0 1 0 63.584-7.264 256 256 0 0 1 340.672-270.464 32 32 0 1 0 21.568-60.256A319.488 319.488 0 0 0 512 192z m312.128 249.12a32 32 0 0 0-62.432 14.112 256.96 256.96 0 0 1 4.704 85.6 32 32 0 0 0 63.584 7.136 323.136 323.136 0 0 0-5.856-106.88z" fill="currentColor" /></svg>