<svg class="currentColor" style="width: 1em;height: 1em;vertical-align: middle;fill: currentColor;overflow: hidden;" viewBox="0 0 1024 1024" version="1.1" xmlns="http://www.w3.org/2000/svg"><path d="M864 96a64 64 0 0 1 64 64v704a64 64 0 0 1-64 64H160a64 64 0 0 1-64-64V160a64 64 0 0 1 64-64h704z m-96 512a32 32 0 0 0-31.776 28.256L736 640v96H288v-96a32 32 0 0 0-63.776-3.744L224 640v128a32 32 0 0 0 28.256 31.776L256 800h512l3.744-0.224a32 32 0 0 0 28.032-28.032L800 768v-128a32 32 0 0 0-32-32zM512 224a32 32 0 0 0-32 32v298.048l-126.4-126.4a32 32 0 0 0-42.464-2.496l-2.784 2.496a32 32 0 0 0-2.496 42.464l2.496 2.784 181.024 181.024a32 32 0 0 0 42.464 2.496l2.784-2.496 181.024-181.024a32 32 0 0 0-42.464-47.744l-2.784 2.496-126.4 126.4V256a32 32 0 0 0-32-32z" fill="currentColor" /></svg>