<svg class="currentColor" style="width: 1em;height: 1em;vertical-align: middle;fill: currentColor;overflow: hidden;" viewBox="0 0 1024 1024" version="1.1" xmlns="http://www.w3.org/2000/svg"><path d="M525.92 250.496l226.272 226.272-411.2 411.2a64 64 0 0 1-45.216 18.752H128a32 32 0 0 1-32-32v-167.776a64 64 0 0 1 18.752-45.248l411.168-411.2zM864 842.56a32 32 0 0 1 0 64H480a32 32 0 0 1 0-64h384z m0-128a32 32 0 0 1 0 64h-192a32 32 0 0 1 0-64h192zM752.192 114.752l135.776 135.744a64 64 0 0 1 0 90.528l-90.528 90.496-226.24-226.24 90.496-90.56a64 64 0 0 1 90.496 0z" fill="currentColor" /></svg>