<svg fill="currentColor" class="currentColor" style="width: 1em;height: 1em;vertical-align: middle;fill: currentColor;overflow: hidden;" viewBox="0 0 1024 1024" version="1.1" xmlns="http://www.w3.org/2000/svg"><path d="M896.35 522.667c41.232 0 74.65 33.431 74.65 74.666V711.69c0 31.943-20.178 60.03-49.06 75.821l-0.843 0.466c-11.22 6.255-21.446 14.376-30.036 24.573-10.85 12.88-18.741 28.645-23.044 48.013-8.44 38.003-39.636 67.438-78.292 67.438h-554.45c-38.656 0-69.852-29.435-78.293-67.438-4.302-19.368-12.193-35.133-23.043-48.013-8.804-10.451-19.328-18.723-30.88-25.039l-0.863-0.477C73.776 771.158 54 743.313 54 711.689V597.333c0-41.235 33.419-74.666 74.65-74.666zM725.75 672h-426.5l-0.53 0.004c-17.428 0.283-31.47 14.5-31.47 31.996 0 17.673 14.327 32 32 32h426.5l0.53-0.004c17.428-0.283 31.47-14.5 31.47-31.996 0-17.673-14.327-32-32-32zM554.646 103.7c13.286 11.384 14.946 31.297 3.82 44.716l-0.34 0.405-82.694 96.512h143.693c27.063 0 41.79 31.424 24.824 52.195l-0.524 0.626-127.95 149.333c-11.499 13.42-31.7 14.979-45.12 3.48-13.287-11.384-14.947-31.297-3.821-44.716l0.34-0.405 82.693-96.513H405.875c-27.063 0-41.79-31.423-24.824-52.194l0.524-0.626 127.95-149.334c11.499-13.42 31.7-14.978 45.12-3.48z" /></svg>