<svg fill="currentColor" class="currentColor" style="width: 1em;height: 1em;vertical-align: middle;fill: currentColor;overflow: hidden;" viewBox="0 0 1024 1024" version="1.1" xmlns="http://www.w3.org/2000/svg"><path d="M957.44 879.616h-27.648c-8.192 0-14.336-6.144-14.336-14.336v-27.648c0-8.192-7.168-15.36-15.36-15.36H808.96c-5.12 0-9.216-4.096-9.216-9.216v-327.68c0-5.12 4.096-9.216 9.216-9.216h87.04c26.624 0 38.912-32.768 18.432-50.176L530.432 90.112c-11.264-9.216-26.624-9.216-37.888 0L108.544 425.984c-20.48 17.408-7.168 50.176 18.432 50.176H215.04c5.12 0 9.216 4.096 9.216 9.216v327.68c0 5.12-4.096 9.216-9.216 9.216h-92.16c-8.192 0-14.336 6.144-14.336 14.336v29.696c0 7.168-6.144 13.312-13.312 13.312H65.536c-8.192 0-14.336 6.144-14.336 14.336v28.672c0 8.192 6.144 14.336 14.336 14.336h892.928c8.192 0 14.336-6.144 14.336-14.336v-27.648c0-9.216-7.168-15.36-15.36-15.36z m-502.784-66.56c0 5.12-4.096 9.216-9.216 9.216H348.16c-5.12 0-9.216-4.096-9.216-9.216v-327.68c0-5.12 4.096-9.216 9.216-9.216h97.28c5.12 0 9.216 4.096 9.216 9.216v327.68z m230.4 0c0 5.12-4.096 9.216-9.216 9.216h-97.28c-5.12 0-9.216-4.096-9.216-9.216v-327.68c0-5.12 4.096-9.216 9.216-9.216H675.84c5.12 0 9.216 4.096 9.216 9.216v327.68z" /></svg>