<svg class="currentColor" style="width: 1em;height: 1em;vertical-align: middle;fill: currentColor;overflow: hidden;" viewBox="0 0 1024 1024" version="1.1" xmlns="http://www.w3.org/2000/svg"><path d="M512.597333 85.333333C287.018667 85.205333 100.266667 260.266667 86.186667 485.034667c-14.08 224.768 149.376 421.717333 373.248 449.621333A213.333333 213.333333 0 0 0 503.04 938.666667c4.693333 0 9.344-0.256 13.994667-0.768 234.581333-2.986667 422.826667-194.304 421.546666-428.501334C937.472 275.2 747.221333 85.845333 512.64 85.333333z m-67.413333 811.264a391.168 391.168 0 0 1-315.434667-465.365333c16.938667 18.005333 56.746667 17.578667 66.432-9.386667 17.365333 10.368 40.832 12.202667 40.832 32.981334 0 68.224 2.389333 141.44 64.597334 142.506666 23.594667 9.6 41.941333 28.928 50.218666 52.992 5.376 13.994667 26.709333 0 50.346667 0 11.776 0 0 19.754667 0 62.378667 0 42.624 91.733333 107.818667 91.733333 107.818667-0.597333 23.04 0.426667 46.08 3.072 68.992a154.282667 154.282667 0 0 0-51.797333 7.082666z m164.352-6.058666c-2.005333-9.941333-10.922667-15.36-27.136-11.093334 12.928-54.997333 19.2-85.76 46.293333-109.184 38.997333-33.792 4.608-71.381333-25.088-66.986666-23.466667 3.584-8.618667-28.928-29.568-30.72-20.906667-1.877333-48.213333-43.221333-78.336-57.6-16.042667-7.466667-31.616-27.818667-56.277333-28.672-21.76-0.853333-53.674667 18.432-53.674667 3.541333a918.4 918.4 0 0 0-5.802666-95.488c-0.853333-10.922667-7.125333-3.669333 22.272-2.986667 16 0.426667 8.149333-32.213333 24.106666-33.450666 15.616-1.28 52.736 14.592 62.208 8.234666 8.874667-5.802667 64.64 146.389333 64.64 25.173334 0-14.336-7.509333-39.338667 0-52.906667 29.482667-53.802667 57.088-97.706667 54.698667-104.106667a81.578667 81.578667 0 0 0-53.248 1.066667c-7.765333 2.56 2.517333 14.762667-8.661333 17.365333-41.813333 9.685333-78.805333-11.264-65.92-30.848 13.269333-20.138667 61.269333-8.789333 65.450666-49.152 2.432-23.082667 4.437333-49.877333 5.76-69.802666 56.32 8.789333 50.090667-72.874667-33.536-81.664a391.466667 391.466667 0 0 1 365.397334 262.570666 15.872 15.872 0 0 0-9.386667-4.266666c-25.258667-63.018667-86.698667-17.408-65.877333 38.229333-111.573333 85.632-83.029333 145.365333-46.378667 179.541333 19.157333 19.370667 35.84 41.045333 49.664 64.469334-13.013333 37.973333 48.085333 22.784 78.08-41.6a391.850667 391.850667 0 0 1-279.68 270.336z m261.248-455.68c5.802667 27.221333 8.533333 54.954667 7.978667 82.773333a423.253333 423.253333 0 0 0-8.32-62.208c0.426667-7.125333 0.554667-14.037333 0.341333-20.48v-0.042667z" fill="currentColor" /></svg>