<svg class="currentColor" style="width: 1em;height: 1em;vertical-align: middle;fill: currentColor;overflow: hidden;" viewBox="0 0 1024 1024" version="1.1" xmlns="http://www.w3.org/2000/svg"><path d="M278.784 79.616a362.752 362.752 0 0 1 490.112 417.834667l219.904 219.861333-60.373333 60.330667-255.445334-255.445334 7.594667-24.576a277.248 277.248 0 0 0-68.906667-278.101333A277.162667 277.162667 0 0 0 355.84 144.725333l180.394667 180.394667-211.2 211.2L144.64 355.84a277.162667 277.162667 0 0 0 74.837333 255.829333 277.248 277.248 0 0 0 278.101334 68.906667l24.533333-7.594667 255.488 255.488-60.330667 60.330667-219.904-219.861333A362.752 362.752 0 0 1 79.530667 278.826667l10.837333-26.624 71.338667 0.085333 163.328 163.328L415.573333 325.12 252.245333 161.792 252.16 90.453333l26.624-10.837333z m393.216 532.096l211.2 211.2-60.330667 60.330667-211.2-211.2 60.330667-60.330667z" fill="currentColor" /></svg>