<svg fill="currentColor" class="currentColor" style="width: 1em;height: 1em;vertical-align: middle;fill: currentColor;overflow: hidden;" viewBox="0 0 1024 1024" version="1.1" xmlns="http://www.w3.org/2000/svg"><path d="M876 160H528c-8.8 0-16-7.2-16-16v-12c0-8.8-7.2-16-16-16h-80.8c-23.9 0-43.2 19.3-43.2 43.2V222h536v-30c0-17.7-14.3-32-32-32zM372 340h236.8c41.5 0 75.2 33.7 75.2 75.2V652h180.8c23.9 0 43.2-19.3 43.2-43.2V254H372v86zM608.8 372H159.2c-23.9 0-43.2 19.3-43.2 43.2v449.6c0 23.9 19.3 43.2 43.2 43.2h449.6c23.9 0 43.2-19.3 43.2-43.2V415.2c0-23.9-19.3-43.2-43.2-43.2zM588 844H180V646.1l65.5-83.3c6.1-7.7 17.6-8.2 24.3-1l144.4 156c12.9 13.9 35 13.6 47.6-0.7l17.9-20.5c6.4-7.3 17.7-7.3 24 0l84.3 95.8V844z m-80-248c-44.2 0-80-35.8-80-80s35.8-80 80-80 80 35.8 80 80-35.8 80-80 80z" /></svg>