<svg fill="currentColor" class="currentColor" style="width: 1em;height: 1em;vertical-align: middle;fill: currentColor;overflow: hidden;" viewBox="0 0 1024 1024" version="1.1" xmlns="http://www.w3.org/2000/svg"><path d="M305.92 138.24a43.072 43.072 0 0 0-43.968-42.24 43.072 43.072 0 0 0-43.904 42.24v62.528c0 23.36 19.648 42.24 43.904 42.24a43.072 43.072 0 0 0 43.904-42.24V138.24z m167.424 0a43.072 43.072 0 0 0-43.968-42.24 43.072 43.072 0 0 0-43.904 42.24v62.528c0 23.36 19.648 42.24 43.904 42.24a43.072 43.072 0 0 0 43.968-42.24V138.24z m167.424 0a43.072 43.072 0 0 0-43.904-42.24 43.072 43.072 0 0 0-43.904 42.24v62.528c0 23.36 19.648 42.24 43.904 42.24a43.072 43.072 0 0 0 43.904-42.24V138.24zM195.008 274.56C158.016 274.56 128 303.36 128 338.88v193.024c0 142.144 119.936 257.408 267.904 257.408h67.008c99.52 0 186.432-52.16 232.576-129.6 7.04 4.608 15.616 7.36 24.832 7.36 96.896 0 175.68-74.88 175.68-167.424 0-89.28-73.344-162.112-165.504-167.104-3.328-32.576-31.872-57.984-66.688-57.984H195.008z m535.808 142.72V531.84c0 17.28-1.792 34.24-5.12 50.624 46.08-2.56 82.432-38.784 82.432-82.88 0-42.368-33.664-77.504-77.312-82.432z m-41.728 426.368c24.256 0 43.904 18.88 43.904 42.176 0 23.296-19.648 42.176-43.904 42.176H173.632a43.072 43.072 0 0 1-43.904-42.24c0-23.232 19.648-42.176 43.904-42.176h515.456z" /></svg>