<svg fill="currentColor" class="currentColor" style="width: 1em;height: 1em;vertical-align: middle;fill: currentColor;overflow: hidden;" viewBox="0 0 1024 1024" version="1.1" xmlns="http://www.w3.org/2000/svg"><path d="M372.992 411.008a51.84 51.84 0 0 0-51.712 51.968 51.84 51.84 0 0 0 51.712 52.032 51.84 51.84 0 0 0 51.712-52.032 51.84 51.84 0 0 0-51.712-51.968zM928 160h-832A32 32 0 0 0 64 192v640a32 32 0 0 0 32 32h832a32 32 0 0 0 32-32V192a32 32 0 0 0-32-32z m-320 260.032c0-4.48 1.024-8 2.304-8h123.392c1.28 0 2.304 3.584 2.304 8v48c0 4.352-1.024 8-2.304 8H610.304c-1.28 0-2.304-3.648-2.304-8v-48z m-86.016 252.992H478.08a8 8 0 0 1-7.872-7.552 97.92 97.92 0 0 0-97.216-90.496c-51.2 0-93.44 40-97.216 90.496a8 8 0 0 1-7.872 7.552H224a8 8 0 0 1-8-8.448c2.816-53.248 32-99.648 74.624-126.08a111.808 111.808 0 0 1-29.12-75.52c0-61.888 49.92-112 111.36-112 61.568 0 111.424 50.112 111.424 112 0 29.12-11.008 55.552-29.12 75.52a158.08 158.08 0 0 1 74.624 126.08 7.68 7.68 0 0 1-7.808 8.448z m278.912-53.056H615.104c-3.904 0-7.104-3.584-7.104-7.936v-48c0-4.48 3.2-8.064 7.04-8.064h185.728c3.904 0 7.104 3.648 7.104 8.064v48h0.128c0 4.352-3.2 7.936-7.04 7.936z" /></svg>