<svg class="currentColor" style="width: 1em;height: 1em;vertical-align: middle;fill: currentColor;overflow: hidden;" viewBox="0 0 1024 1024" version="1.1" xmlns="http://www.w3.org/2000/svg"><path d="M563.2 115.2c43.712 0 80.512 31.424 88.192 73.984l1.024 7.616 0.384 8v102.4c0 43.712-31.424 80.512-73.984 88.192l-7.616 1.024L563.2 396.8h-12.8v76.8H768c14.912 0 28.032 8.576 34.432 21.824l2.112 5.248 1.408 5.568 0.448 5.76v115.2h12.8a89.6 89.6 0 0 1 86.528 66.56l1.664 7.424 1.024 7.616 0.384 8v102.4c0 43.712-31.424 80.512-73.984 88.192l-7.616 1.024-8 0.384h-102.4a89.664 89.664 0 0 1-88.192-73.984l-1.024-7.616L627.2 819.2v-102.4c0-43.712 31.424-80.512 73.984-88.192l7.616-1.024 8-0.384h12.8V550.4H294.4v76.8h12.8a89.6 89.6 0 0 1 86.528 66.56l1.664 7.424 1.024 7.616 0.384 8v102.4c0 43.712-31.424 80.512-73.984 88.192l-7.616 1.024-8 0.384H204.8a89.664 89.664 0 0 1-88.192-73.984l-1.024-7.616L115.2 819.2v-102.4c0-43.712 31.424-80.512 73.984-88.192l7.616-1.024L204.8 627.2h12.8V512c0-14.912 8.576-28.032 21.824-34.432l5.248-2.112 5.568-1.408L256 473.6h217.6V396.8h-12.8a89.6 89.6 0 0 1-86.528-66.56l-1.664-7.424-1.024-7.616L371.2 307.2V204.8c0-43.712 31.424-80.512 73.984-88.192l7.616-1.024L460.8 115.2h102.4z" fill="currentColor" /></svg>