<svg fill="currentColor" class="currentColor" style="width: 1em;height: 1em;vertical-align: middle;fill: currentColor;overflow: hidden;" viewBox="0 0 1024 1024" version="1.1" xmlns="http://www.w3.org/2000/svg"><path d="M767.784 58.667c17.674 0 32 14.327 32 32 0 17.496-14.041 31.713-31.47 31.995l-0.53 0.005h-511.72c-17.672 0-32-14.327-32-32 0-17.497 14.043-31.713 31.472-31.996l0.529-0.004h511.72zM640.458 58.667c17.496 0 31.713 14.041 31.996 31.47l0.004 0.53-0.001 228.176 150.719 312.592c7.598 15.76 1.125 34.665-14.452 42.49l-0.475 0.233c-15.76 7.599-34.664 1.125-42.489-14.452l-0.233-0.475-153.894-319.176a32 32 0 0 1-3.17-13.297l-0.005-0.601-0.001-203.491H416.399v203.49a32 32 0 0 1-2.936 13.392l-0.257 0.545-154.414 319.176c-7.696 15.91-26.833 22.567-42.742 14.87-15.75-7.62-22.432-26.45-15.096-42.263l0.226-0.479L352.4 318.822V90.667c0-17.497 14.043-31.713 31.472-32h256.587zM248.505 619.226l-0.299-0.2c-16.15-11.184-38.47-5.313-47.026 12.371l-95.999 198.428c-24.484 50.61-3.328 111.497 47.264 136A101.744 101.744 0 0 0 196.795 976h630.426C883.434 976 929 930.41 929 874.182c0-15.319-3.454-30.437-10.107-44.236l-95.715-198.51A32 32 0 0 0 812.534 619l-0.887-0.601-0.757-0.503-0.772-0.505-1.27-0.818-0.452-0.289a221.76 221.76 0 0 0-1.29-0.813l-1.345-0.835-1.398-0.855c-0.237-0.144-0.477-0.29-0.719-0.435l-1.477-0.885-1.53-0.902-1.583-0.921-0.81-0.467c-10.71-6.146-22.793-12.255-36.067-17.95-28.417-12.19-58.454-20.873-89.46-24.484-39.415-4.59-78.083-0.655-114.87 13.563-23.021 8.898-44.876 21.691-65.319 38.549l-1.094 0.907c-15.22 12.69-31.179 22.142-47.852 28.673-26.593 10.416-54.93 13.382-84.562 9.966-24.398-2.813-48.62-9.817-71.723-19.754-10.865-4.673-20.726-9.673-29.348-14.635l-1.242-0.72-1.194-0.701-1.145-0.682-1.096-0.662-1.047-0.642-0.996-0.62-1.242-0.787-1.271-0.826a75.64 75.64 0 0 1-0.211-0.14z" /></svg>