<svg class="currentColor" style="width: 1em;height: 1em;vertical-align: middle;fill: currentColor;overflow: hidden;" viewBox="0 0 1024 1024" version="1.1" xmlns="http://www.w3.org/2000/svg"><path d="M533.333333 170.666667a277.333333 277.333333 0 0 1 277.333334 277.333333c0 101.973333-88.021333 233.984-262.656 399.488a21.333333 21.333333 0 0 1-29.354667 0C344.021333 681.941333 256 549.973333 256 448A277.333333 277.333333 0 0 1 533.333333 170.666667z m0 170.666666a106.666667 106.666667 0 1 0 0 213.333334 106.666667 106.666667 0 0 0 0-213.333334z m0 42.666667a64 64 0 1 1 0 128 64 64 0 0 1 0-128z" fill="currentColor" /></svg>