<svg fill="currentColor" class="currentColor" style="width: 1em;height: 1em;vertical-align: middle;fill: currentColor;overflow: hidden;" viewBox="0 0 1024 1024" version="1.1" xmlns="http://www.w3.org/2000/svg"><path d="M800 320h-60V160c0-52.8-43.2-96-96-96H380c-52.8 0-96 43.2-96 96v160h-60c-35.2 0-64 28.8-64 64v512c0 35.2 28.8 64 64 64h576c35.2 0 64-28.8 64-64V384c0-35.2-28.8-64-64-64zM544 613.9V784c0 17.7-14.3 32-32 32s-32-14.3-32-32V613.9c-14.5-10.1-24-26.9-24-45.9 0-30.9 25.1-56 56-56s56 25.1 56 56c0 19-9.5 35.8-24 45.9zM612 320H412V192h200v128z" /></svg>