<svg class="currentColor" style="width: 1em;height: 1em;vertical-align: middle;fill: currentColor;overflow: hidden;" viewBox="0 0 1024 1024" version="1.1" xmlns="http://www.w3.org/2000/svg"><path d="M723.68 524.576a16 16 0 0 1-1.504 1.504l-215.68 186.976a16 16 0 0 1-26.496-12.096V608H144a16 16 0 0 1-16-16v-160a16 16 0 0 1 16-16H480v-92.512a16 16 0 0 1 26.592-12l215.68 190.496a16 16 0 0 1 1.408 22.592zM896 816l-0.224 4.608a48 48 0 0 1-43.168 43.2L848 864h-608l-4.608-0.224a48 48 0 0 1-43.2-43.168L192 816V704l0.224-3.744a32 32 0 0 1 28.032-28.032L224 672l3.744 0.224a32 32 0 0 1 28.032 28.032L256 704v96h576V224H256v96l-0.224 3.744a32 32 0 0 1-63.552 0L192 320V208l0.224-4.608a48 48 0 0 1 43.168-43.2L240 160h608l4.608 0.224a48 48 0 0 1 43.2 43.168L896 208v608z" fill="currentColor" /></svg>