<svg fill="currentColor" class="currentColor" style="width: 1em;height: 1em;vertical-align: middle;fill: currentColor;overflow: hidden;" viewBox="0 0 1024 1024" version="1.1" xmlns="http://www.w3.org/2000/svg"><path d="M845 344H179c-35.2 0-64-28.8-64-64v-56c0-35.2 28.8-64 64-64h666c35.2 0 64 28.8 64 64v56c0 35.2-28.8 64-64 64zM845 604H179c-35.2 0-64-28.8-64-64v-56c0-35.2 28.8-64 64-64h666c35.2 0 64 28.8 64 64v56c0 35.2-28.8 64-64 64zM845 864H179c-35.2 0-64-28.8-64-64v-56c0-35.2 28.8-64 64-64h666c35.2 0 64 28.8 64 64v56c0 35.2-28.8 64-64 64z" /></svg>